<svg width="46" height="46" viewBox="0 0 46 46" fill="none" xmlns="http://www.w3.org/2000/svg">
<path d="M31.1548 27.5775L31.1548 14.8495C31.1547 14.6508 31.0756 14.4602 30.9351 14.3197C30.7946 14.1791 30.604 14.1001 30.4052 14.1L17.6773 14.1C17.4831 14.1069 17.2991 14.1888 17.1642 14.3286C17.0292 14.4685 16.9538 14.6552 16.9538 14.8495C16.9538 15.0439 17.0292 15.2306 17.1642 15.3704C17.2991 15.5102 17.4831 15.5922 17.6773 15.5991L28.5942 15.6L14.3186 29.8756C14.1779 30.0162 14.0989 30.207 14.0989 30.4059C14.0989 30.6048 14.1779 30.7956 14.3186 30.9362C14.4592 31.0769 14.65 31.1559 14.8489 31.1559C15.0478 31.1559 15.2386 31.0769 15.3792 30.9362L29.6548 16.6606L29.6557 27.5775C29.6626 27.7717 29.7445 27.9556 29.8843 28.0906C30.0242 28.2256 30.2109 28.301 30.4052 28.301C30.5996 28.301 30.7863 28.2256 30.9261 28.0906C31.0659 27.9556 31.1479 27.7717 31.1548 27.5775Z" fill="black" stroke="black" stroke-width="1.5"/>
</svg>
