<svg width="162" height="25" viewBox="0 0 162 25" fill="none" xmlns="http://www.w3.org/2000/svg">
<path fill-rule="evenodd" clip-rule="evenodd" d="M16.6469 11.5294C19.7224 11.5294 22.2156 8.94846 22.2156 5.76471C22.2156 2.58095 19.7224 0 16.6469 0C13.5714 0 11.0782 2.58095 11.0782 5.76471C11.0782 8.94846 13.5714 11.5294 16.6469 11.5294ZM7.76066 20.2353V10.2353L0 18.1765L7.76066 20.2353ZM11.0781 21.1176V12.3529C14.5734 15 18.4241 15.2941 21.9194 12.7647L24.9999 25L11.0781 21.1176Z" fill="#8F1943"/>
<path d="M38.1477 19V7.36364H42.5114C43.4053 7.36364 44.1553 7.5303 44.7614 7.86364C45.3712 8.19697 45.8314 8.6553 46.142 9.23864C46.4564 9.81818 46.6136 10.4773 46.6136 11.2159C46.6136 11.9621 46.4564 12.625 46.142 13.2045C45.8277 13.7841 45.3636 14.2405 44.75 14.5739C44.1364 14.9034 43.3807 15.0682 42.483 15.0682H39.5909V13.3352H42.1989C42.7216 13.3352 43.1496 13.2443 43.483 13.0625C43.8163 12.8807 44.0625 12.6307 44.2216 12.3125C44.3845 11.9943 44.4659 11.6288 44.4659 11.2159C44.4659 10.803 44.3845 10.4394 44.2216 10.125C44.0625 9.81061 43.8144 9.56629 43.4773 9.39205C43.1439 9.21402 42.714 9.125 42.1875 9.125H40.2557V19H38.1477ZM52.0355 19.1705C51.1832 19.1705 50.4446 18.983 49.8196 18.608C49.1946 18.233 48.7098 17.7083 48.3651 17.0341C48.0241 16.3598 47.8537 15.572 47.8537 14.6705C47.8537 13.7689 48.0241 12.9792 48.3651 12.3011C48.7098 11.6231 49.1946 11.0966 49.8196 10.7216C50.4446 10.3466 51.1832 10.1591 52.0355 10.1591C52.8878 10.1591 53.6264 10.3466 54.2514 10.7216C54.8764 11.0966 55.3594 11.6231 55.7003 12.3011C56.045 12.9792 56.2173 13.7689 56.2173 14.6705C56.2173 15.572 56.045 16.3598 55.7003 17.0341C55.3594 17.7083 54.8764 18.233 54.2514 18.608C53.6264 18.983 52.8878 19.1705 52.0355 19.1705ZM52.0469 17.5227C52.509 17.5227 52.8954 17.3958 53.206 17.142C53.5166 16.8845 53.7476 16.5398 53.8991 16.108C54.0545 15.6761 54.1321 15.1951 54.1321 14.6648C54.1321 14.1307 54.0545 13.6477 53.8991 13.2159C53.7476 12.7803 53.5166 12.4337 53.206 12.1761C52.8954 11.9186 52.509 11.7898 52.0469 11.7898C51.5734 11.7898 51.1795 11.9186 50.8651 12.1761C50.5545 12.4337 50.3215 12.7803 50.1662 13.2159C50.0147 13.6477 49.9389 14.1307 49.9389 14.6648C49.9389 15.1951 50.0147 15.6761 50.1662 16.108C50.3215 16.5398 50.5545 16.8845 50.8651 17.142C51.1795 17.3958 51.5734 17.5227 52.0469 17.5227ZM60.0199 7.36364V19H57.9631V7.36364H60.0199ZM63.4134 22.2727C63.133 22.2727 62.8736 22.25 62.6349 22.2045C62.4001 22.1629 62.2126 22.1136 62.0724 22.0568L62.5497 20.4545C62.849 20.5417 63.116 20.5833 63.3509 20.5795C63.5857 20.5758 63.7921 20.5019 63.9702 20.358C64.152 20.2178 64.3054 19.983 64.4304 19.6534L64.6065 19.1818L61.4418 10.2727H63.6236L65.6349 16.8636H65.7259L67.7429 10.2727H69.9304L66.4361 20.0568C66.2732 20.5189 66.0573 20.9148 65.7884 21.2443C65.5194 21.5777 65.1899 21.8314 64.7997 22.0057C64.4134 22.1837 63.9512 22.2727 63.4134 22.2727ZM71.3537 19V10.2727H73.3196V11.7557H73.4219C73.6037 11.2557 73.9048 10.8655 74.3253 10.5852C74.7457 10.3011 75.2476 10.1591 75.831 10.1591C76.4219 10.1591 76.92 10.303 77.3253 10.5909C77.7344 10.875 78.0223 11.2633 78.1889 11.7557H78.2798C78.473 11.2708 78.7988 10.8845 79.2571 10.5966C79.7192 10.3049 80.2666 10.1591 80.8991 10.1591C81.7022 10.1591 82.3575 10.4129 82.8651 10.9205C83.3726 11.428 83.6264 12.1686 83.6264 13.142V19H81.5639V13.4602C81.5639 12.9186 81.42 12.5227 81.1321 12.2727C80.8442 12.0189 80.492 11.892 80.0753 11.892C79.5791 11.892 79.1908 12.0473 78.9105 12.358C78.634 12.6648 78.4957 13.0644 78.4957 13.5568V19H76.4787V13.375C76.4787 12.9242 76.3423 12.5644 76.0696 12.2955C75.8007 12.0265 75.4484 11.892 75.0128 11.892C74.7173 11.892 74.4484 11.9678 74.206 12.1193C73.9635 12.267 73.7704 12.4773 73.6264 12.75C73.4825 13.0189 73.4105 13.3333 73.4105 13.6932V19H71.3537ZM89.5199 19.1705C88.6676 19.1705 87.929 18.983 87.304 18.608C86.679 18.233 86.1941 17.7083 85.8494 17.0341C85.5085 16.3598 85.3381 15.572 85.3381 14.6705C85.3381 13.7689 85.5085 12.9792 85.8494 12.3011C86.1941 11.6231 86.679 11.0966 87.304 10.7216C87.929 10.3466 88.6676 10.1591 89.5199 10.1591C90.3722 10.1591 91.1108 10.3466 91.7358 10.7216C92.3608 11.0966 92.8438 11.6231 93.1847 12.3011C93.5294 12.9792 93.7017 13.7689 93.7017 14.6705C93.7017 15.572 93.5294 16.3598 93.1847 17.0341C92.8438 17.7083 92.3608 18.233 91.7358 18.608C91.1108 18.983 90.3722 19.1705 89.5199 19.1705ZM89.5312 17.5227C89.9934 17.5227 90.3797 17.3958 90.6903 17.142C91.0009 16.8845 91.232 16.5398 91.3835 16.108C91.5388 15.6761 91.6165 15.1951 91.6165 14.6648C91.6165 14.1307 91.5388 13.6477 91.3835 13.2159C91.232 12.7803 91.0009 12.4337 90.6903 12.1761C90.3797 11.9186 89.9934 11.7898 89.5312 11.7898C89.0578 11.7898 88.6638 11.9186 88.3494 12.1761C88.0388 12.4337 87.8059 12.7803 87.6506 13.2159C87.4991 13.6477 87.4233 14.1307 87.4233 14.6648C87.4233 15.1951 87.4991 15.6761 87.6506 16.108C87.8059 16.5398 88.0388 16.8845 88.3494 17.142C88.6638 17.3958 89.0578 17.5227 89.5312 17.5227ZM95.4474 19V10.2727H97.4418V11.7273H97.5327C97.6918 11.2235 97.9645 10.8352 98.3509 10.5625C98.741 10.286 99.1861 10.1477 99.6861 10.1477C99.7997 10.1477 99.9266 10.1534 100.067 10.1648C100.211 10.1723 100.33 10.1856 100.425 10.2045V12.0966C100.338 12.0663 100.199 12.0398 100.01 12.017C99.8243 11.9905 99.6444 11.9773 99.4702 11.9773C99.0952 11.9773 98.758 12.0587 98.4588 12.2216C98.1634 12.3807 97.9304 12.6023 97.7599 12.8864C97.5895 13.1705 97.5043 13.4981 97.5043 13.8693V19H95.4474ZM101.791 22.2727V10.2727H103.814V11.7159H103.933C104.039 11.5038 104.189 11.2784 104.382 11.0398C104.575 10.7973 104.837 10.5909 105.166 10.4205C105.496 10.2462 105.916 10.1591 106.428 10.1591C107.102 10.1591 107.71 10.3314 108.251 10.6761C108.797 11.017 109.229 11.5227 109.547 12.1932C109.869 12.8598 110.03 13.678 110.03 14.6477C110.03 15.6061 109.873 16.4205 109.558 17.0909C109.244 17.7614 108.816 18.2727 108.274 18.625C107.732 18.9773 107.119 19.1534 106.433 19.1534C105.933 19.1534 105.518 19.0701 105.189 18.9034C104.859 18.7367 104.594 18.536 104.393 18.3011C104.196 18.0625 104.043 17.8371 103.933 17.625H103.848V22.2727H101.791ZM103.808 14.6364C103.808 15.2008 103.888 15.6951 104.047 16.1193C104.21 16.5436 104.443 16.875 104.746 17.1136C105.053 17.3485 105.424 17.4659 105.859 17.4659C106.314 17.4659 106.695 17.3447 107.001 17.1023C107.308 16.8561 107.539 16.5208 107.695 16.0966C107.854 15.6686 107.933 15.1818 107.933 14.6364C107.933 14.0947 107.856 13.6136 107.7 13.1932C107.545 12.7727 107.314 12.4432 107.007 12.2045C106.7 11.9659 106.318 11.8466 105.859 11.8466C105.42 11.8466 105.047 11.9621 104.74 12.1932C104.433 12.4242 104.2 12.7481 104.041 13.1648C103.886 13.5814 103.808 14.072 103.808 14.6364ZM113.848 13.8864V19H111.791V7.36364H113.803V11.7557H113.905C114.109 11.2633 114.426 10.875 114.854 10.5909C115.286 10.303 115.835 10.1591 116.501 10.1591C117.107 10.1591 117.636 10.286 118.087 10.5398C118.537 10.7936 118.886 11.1648 119.132 11.6534C119.382 12.142 119.507 12.7386 119.507 13.4432V19H117.45V13.7614C117.45 13.1742 117.299 12.7178 116.996 12.392C116.696 12.0625 116.276 11.8977 115.734 11.8977C115.371 11.8977 115.045 11.9773 114.757 12.1364C114.473 12.2917 114.25 12.517 114.087 12.8125C113.928 13.108 113.848 13.4659 113.848 13.8864ZM125.663 19V7.36364H127.771V17.233H132.896V19H125.663ZM137.146 19.1761C136.593 19.1761 136.095 19.0777 135.652 18.8807C135.213 18.6799 134.864 18.3845 134.607 17.9943C134.353 17.6042 134.226 17.1231 134.226 16.5511C134.226 16.0587 134.317 15.6515 134.499 15.3295C134.68 15.0076 134.929 14.75 135.243 14.5568C135.557 14.3636 135.911 14.2178 136.305 14.1193C136.703 14.017 137.114 13.9432 137.538 13.8977C138.05 13.8447 138.464 13.7973 138.783 13.7557C139.101 13.7102 139.332 13.642 139.476 13.5511C139.624 13.4564 139.697 13.3106 139.697 13.1136V13.0795C139.697 12.6515 139.571 12.3201 139.317 12.0852C139.063 11.8504 138.697 11.733 138.22 11.733C137.716 11.733 137.317 11.8428 137.021 12.0625C136.73 12.2822 136.533 12.5417 136.43 12.8409L134.51 12.5682C134.661 12.0379 134.911 11.5947 135.26 11.2386C135.608 10.8788 136.035 10.6098 136.538 10.4318C137.042 10.25 137.599 10.1591 138.209 10.1591C138.629 10.1591 139.048 10.2083 139.464 10.3068C139.881 10.4053 140.262 10.5682 140.607 10.7955C140.951 11.0189 141.228 11.3239 141.436 11.7102C141.648 12.0966 141.754 12.5795 141.754 13.1591V19H139.777V17.8011H139.709C139.584 18.0436 139.408 18.2708 139.18 18.483C138.957 18.6913 138.675 18.8598 138.334 18.9886C137.997 19.1136 137.601 19.1761 137.146 19.1761ZM137.68 17.6648C138.093 17.6648 138.451 17.5833 138.754 17.4205C139.057 17.2538 139.29 17.0341 139.453 16.7614C139.62 16.4886 139.703 16.1913 139.703 15.8693V14.8409C139.639 14.8939 139.529 14.9432 139.374 14.9886C139.222 15.0341 139.052 15.0739 138.862 15.108C138.673 15.142 138.485 15.1723 138.3 15.1989C138.114 15.2254 137.953 15.2481 137.817 15.267C137.51 15.3087 137.235 15.3769 136.993 15.4716C136.75 15.5663 136.559 15.6989 136.419 15.8693C136.279 16.036 136.209 16.2519 136.209 16.517C136.209 16.8958 136.347 17.1818 136.624 17.375C136.9 17.5682 137.252 17.6648 137.68 17.6648ZM143.913 19V7.36364H145.97V11.7159H146.055C146.161 11.5038 146.311 11.2784 146.504 11.0398C146.697 10.7973 146.959 10.5909 147.288 10.4205C147.618 10.2462 148.038 10.1591 148.55 10.1591C149.224 10.1591 149.832 10.3314 150.374 10.6761C150.919 11.017 151.351 11.5227 151.669 12.1932C151.991 12.8598 152.152 13.678 152.152 14.6477C152.152 15.6061 151.995 16.4205 151.68 17.0909C151.366 17.7614 150.938 18.2727 150.396 18.625C149.855 18.9773 149.241 19.1534 148.555 19.1534C148.055 19.1534 147.641 19.0701 147.311 18.9034C146.982 18.7367 146.716 18.536 146.516 18.3011C146.319 18.0625 146.165 17.8371 146.055 17.625H145.936V19H143.913ZM145.93 14.6364C145.93 15.2008 146.01 15.6951 146.169 16.1193C146.332 16.5436 146.565 16.875 146.868 17.1136C147.175 17.3485 147.546 17.4659 147.982 17.4659C148.436 17.4659 148.817 17.3447 149.124 17.1023C149.43 16.8561 149.661 16.5208 149.817 16.0966C149.976 15.6686 150.055 15.1818 150.055 14.6364C150.055 14.0947 149.978 13.6136 149.822 13.1932C149.667 12.7727 149.436 12.4432 149.129 12.2045C148.822 11.9659 148.44 11.8466 147.982 11.8466C147.542 11.8466 147.169 11.9621 146.862 12.1932C146.555 12.4242 146.322 12.7481 146.163 13.1648C146.008 13.5814 145.93 14.072 145.93 14.6364ZM160.798 12.5795L158.923 12.7841C158.87 12.5947 158.777 12.4167 158.645 12.25C158.516 12.0833 158.342 11.9489 158.122 11.8466C157.902 11.7443 157.634 11.6932 157.315 11.6932C156.887 11.6932 156.527 11.786 156.236 11.9716C155.948 12.1572 155.806 12.3977 155.81 12.6932C155.806 12.947 155.899 13.1534 156.088 13.3125C156.281 13.4716 156.599 13.6023 157.043 13.7045L158.531 14.0227C159.357 14.2008 159.971 14.483 160.372 14.8693C160.777 15.2557 160.982 15.7614 160.986 16.3864C160.982 16.9356 160.821 17.4205 160.503 17.8409C160.188 18.2576 159.751 18.5833 159.19 18.8182C158.63 19.053 157.986 19.1705 157.259 19.1705C156.19 19.1705 155.33 18.947 154.679 18.5C154.027 18.0492 153.639 17.4223 153.514 16.6193L155.52 16.4261C155.611 16.8201 155.804 17.1174 156.099 17.3182C156.395 17.5189 156.779 17.6193 157.253 17.6193C157.741 17.6193 158.134 17.5189 158.429 17.3182C158.728 17.1174 158.878 16.8693 158.878 16.5739C158.878 16.3239 158.781 16.1174 158.588 15.9545C158.399 15.7917 158.103 15.6667 157.702 15.5795L156.213 15.267C155.376 15.0928 154.757 14.7992 154.355 14.3864C153.954 13.9697 153.755 13.4432 153.759 12.8068C153.755 12.2689 153.901 11.803 154.196 11.4091C154.495 11.0114 154.91 10.7045 155.44 10.4886C155.974 10.2689 156.59 10.1591 157.287 10.1591C158.31 10.1591 159.115 10.3769 159.702 10.8125C160.293 11.2481 160.658 11.8371 160.798 12.5795Z" fill="#1B2558"/>
</svg>
